<svg width="184" height="184" viewBox="0 0 184 184" fill="none" xmlns="http://www.w3.org/2000/svg">
<rect x="0.5" y="0.5" width="182.902" height="182.902" rx="15.5" stroke="#FFA800" stroke-dasharray="5 5"/>
<rect x="38.8262" y="38.8271" width="106.249" height="106.249" stroke="#FFA800"/>
<path d="M109.658 109.659L91.9503 91.9512L74.2422 109.659" stroke="black" stroke-width="2" stroke-linecap="round" stroke-linejoin="round"/>
<path d="M91.9502 91.9512V131.794" stroke="#FFA800" stroke-width="3" stroke-linecap="round" stroke-linejoin="round"/>
<path d="M129.093 120.24C133.411 117.886 136.822 114.161 138.788 109.654C140.754 105.146 141.162 100.112 139.949 95.3457C138.736 90.5798 135.971 86.3536 132.089 83.3341C128.207 80.3146 123.43 78.6737 118.513 78.6705H112.935C111.595 73.4875 109.097 68.6757 105.63 64.5969C102.162 60.5181 97.8156 57.2784 92.916 55.1213C88.0164 52.9643 82.6915 51.946 77.3418 52.1432C71.992 52.3403 66.7565 53.7476 62.0289 56.2593C57.3013 58.7711 53.2047 62.3219 50.0469 66.6448C46.8892 70.9677 44.7525 75.9502 43.7975 81.2177C42.8426 86.4853 43.0942 91.9008 44.5335 97.0571C45.9727 102.213 48.5622 106.976 52.1072 110.988" stroke="#FFA800" stroke-width="3" stroke-linecap="round" stroke-linejoin="round"/>
<path d="M109.658 109.659L91.9503 91.9512L74.2422 109.659" stroke="#FFA800" stroke-width="3" stroke-linecap="round" stroke-linejoin="round"/>
</svg>
