<svg width="30" height="13" viewBox="0 0 30 13" fill="none" xmlns="http://www.w3.org/2000/svg">
<path d="M5.3125 1.63281L1.54688 12H0.0078125L4.34375 0.625H5.33594L5.3125 1.63281ZM8.46875 12L4.69531 1.63281L4.67188 0.625H5.66406L10.0156 12H8.46875ZM8.27344 7.78906V9.02344H1.88281V7.78906H8.27344ZM14.6172 12H12.2422L12.2578 10.7734H14.6172C15.4297 10.7734 16.1068 10.6042 16.6484 10.2656C17.1901 9.92188 17.5964 9.44271 17.8672 8.82812C18.1432 8.20833 18.2812 7.48438 18.2812 6.65625V5.96094C18.2812 5.3099 18.2031 4.73177 18.0469 4.22656C17.8906 3.71615 17.6615 3.28646 17.3594 2.9375C17.0573 2.58333 16.6875 2.3151 16.25 2.13281C15.8177 1.95052 15.3203 1.85938 14.7578 1.85938H12.1953V0.625H14.7578C15.5026 0.625 16.1823 0.75 16.7969 1C17.4115 1.24479 17.9401 1.60156 18.3828 2.07031C18.8307 2.53385 19.1745 3.09635 19.4141 3.75781C19.6536 4.41406 19.7734 5.15365 19.7734 5.97656V6.65625C19.7734 7.47917 19.6536 8.22135 19.4141 8.88281C19.1745 9.53906 18.8281 10.099 18.375 10.5625C17.9271 11.026 17.3854 11.3828 16.75 11.6328C16.1198 11.8776 15.4089 12 14.6172 12ZM13.0469 0.625V12H11.5391V0.625H13.0469ZM28.1016 9.125C28.1016 8.85938 28.0599 8.625 27.9766 8.42188C27.8984 8.21354 27.7578 8.02604 27.5547 7.85938C27.3568 7.69271 27.0807 7.53385 26.7266 7.38281C26.3776 7.23177 25.9349 7.07812 25.3984 6.92188C24.8359 6.75521 24.3281 6.57031 23.875 6.36719C23.4219 6.15885 23.0339 5.92188 22.7109 5.65625C22.388 5.39062 22.1406 5.08594 21.9688 4.74219C21.7969 4.39844 21.7109 4.00521 21.7109 3.5625C21.7109 3.11979 21.8021 2.71094 21.9844 2.33594C22.1667 1.96094 22.4271 1.63542 22.7656 1.35938C23.1094 1.07812 23.5182 0.859375 23.9922 0.703125C24.4661 0.546875 24.9948 0.46875 25.5781 0.46875C26.4323 0.46875 27.1562 0.632812 27.75 0.960938C28.349 1.28385 28.8047 1.70833 29.1172 2.23438C29.4297 2.75521 29.5859 3.3125 29.5859 3.90625H28.0859C28.0859 3.47917 27.9948 3.10156 27.8125 2.77344C27.6302 2.4401 27.3542 2.17969 26.9844 1.99219C26.6146 1.79948 26.1458 1.70312 25.5781 1.70312C25.0417 1.70312 24.599 1.78385 24.25 1.94531C23.901 2.10677 23.6406 2.32552 23.4688 2.60156C23.3021 2.8776 23.2188 3.19271 23.2188 3.54688C23.2188 3.78646 23.2682 4.00521 23.3672 4.20312C23.4714 4.39583 23.6302 4.57552 23.8438 4.74219C24.0625 4.90885 24.3385 5.0625 24.6719 5.20312C25.0104 5.34375 25.4141 5.47917 25.8828 5.60938C26.5286 5.79167 27.0859 5.99479 27.5547 6.21875C28.0234 6.44271 28.4089 6.69531 28.7109 6.97656C29.0182 7.2526 29.2448 7.56771 29.3906 7.92188C29.5417 8.27083 29.6172 8.66667 29.6172 9.10938C29.6172 9.57292 29.5234 9.99219 29.3359 10.3672C29.1484 10.7422 28.8802 11.0625 28.5312 11.3281C28.1823 11.5938 27.763 11.7995 27.2734 11.9453C26.7891 12.0859 26.2474 12.1562 25.6484 12.1562C25.1224 12.1562 24.6042 12.0833 24.0938 11.9375C23.5885 11.7917 23.1276 11.5729 22.7109 11.2812C22.2995 10.9896 21.9688 10.6302 21.7188 10.2031C21.474 9.77083 21.3516 9.27083 21.3516 8.70312H22.8516C22.8516 9.09375 22.9271 9.42969 23.0781 9.71094C23.2292 9.98698 23.4349 10.2161 23.6953 10.3984C23.9609 10.5807 24.2604 10.7161 24.5938 10.8047C24.9323 10.888 25.2839 10.9297 25.6484 10.9297C26.1745 10.9297 26.6198 10.8568 26.9844 10.7109C27.349 10.5651 27.625 10.3568 27.8125 10.0859C28.0052 9.8151 28.1016 9.49479 28.1016 9.125Z" fill="#7B7B7B"/>
</svg>
