<svg width="24" height="24" viewBox="0 0 24 24" stroke="#FFA800" fill="#FFA800" xmlns="http://www.w3.org/2000/svg">
<path d="M4.20039 19.8006C4.54475 19.415 6.85824 17.598 8.00814 16.7023C8.42695 16.3761 8.94066 16.2006 9.47153 16.2006C10.7552 16.2006 13.2288 16.2006 14.5186 16.2006C15.0557 16.2006 15.5745 16.3836 16.0069 16.7021C17.4917 17.7959 18.8837 18.6109 20.4004 19.8006M6.00039 21.6004H18.0004C19.9886 21.6004 21.6004 19.9886 21.6004 18.0004V6.00039C21.6004 4.01217 19.9886 2.40039 18.0004 2.40039H6.00039C4.01217 2.40039 2.40039 4.01217 2.40039 6.00039V18.0004C2.40039 19.9886 4.01217 21.6004 6.00039 21.6004ZM15.4389 9.27243C15.4389 7.44092 13.8928 5.94447 12.0004 5.94447C10.108 5.94447 8.56184 7.44092 8.56184 9.27243C8.56184 11.1039 10.108 12.6004 12.0004 12.6004C13.8928 12.6004 15.4389 11.1039 15.4389 9.27243Z" stroke="#7B7B7B" stroke-width="2"/>
</svg>
