<svg width="24" height="24" viewBox="0 0 24 24" fill="none" xmlns="http://www.w3.org/2000/svg">
<path d="M5.99805 2.99121C4.34105 2.99121 2.99805 4.33431 2.99805 5.99121V7.99121V16.9912C2.99805 19.2002 4.78905 20.9912 6.99805 20.9912H16.998C19.207 20.9912 20.998 19.2002 20.998 16.9912V7.99121C20.998 7.43891 20.55 6.99121 19.998 6.99121H14.998C14.243 6.99121 14.0001 6.74631 13.4041 5.55371C12.5011 3.74631 11.743 2.99121 9.99805 2.99121H5.99805ZM5.99805 4.99121H9.99805C10.753 4.99121 10.996 5.23611 11.592 6.42871C11.722 6.68981 11.766 6.76391 11.894 6.98191L7.96704 6.99121C7.41404 6.99121 6.96704 7.43891 6.96704 7.99121C6.96704 8.54351 7.41404 8.99121 7.96704 8.99121H14.998H18.998V16.9912C18.998 18.0962 18.103 18.9912 16.998 18.9912H6.99805C5.89305 18.9912 4.99805 18.0962 4.99805 16.9912V7.99121V5.99121C4.99805 5.43891 5.44605 4.99121 5.99805 4.99121Z" fill="#7B7B7B"/>
</svg>
