<svg width="20" height="23" viewBox="0 0 20 23" fill="none" xmlns="http://www.w3.org/2000/svg">
<path d="M11.2498 1.25C11.2498 0.91848 11.1182 0.600537 10.8837 0.366117C10.6493 0.131696 10.3314 0 9.99985 0C9.66832 0 9.35038 0.131696 9.11596 0.366117C8.88154 0.600537 8.74984 0.91848 8.74984 1.25L8.74609 11.2538C8.74609 11.5853 8.87779 11.9032 9.11221 12.1376C9.34663 12.3721 9.66457 12.5038 9.9961 12.5038C10.3276 12.5038 10.6456 12.3721 10.88 12.1376C11.1144 11.9032 11.2461 11.5853 11.2461 11.2538L11.2498 1.25125V1.25Z" fill="#7B7B7B"/>
<path d="M0 12.4795C0 9.71695 1.11875 7.21695 2.92875 5.4082L4.69625 7.1757C3.64731 8.22458 2.93295 9.56095 2.64352 11.0158C2.35409 12.4707 2.50259 13.9787 3.07023 15.3492C3.63787 16.7197 4.59917 17.891 5.83255 18.7152C7.06593 19.5393 8.51599 19.9792 9.99938 19.9792C11.4828 19.9792 12.9328 19.5393 14.1662 18.7152C15.3996 17.891 16.3609 16.7197 16.9285 15.3492C17.4962 13.9787 17.6447 12.4707 17.3552 11.0158C17.0658 9.56095 16.3514 8.22458 15.3025 7.1757L17.0712 5.4082C18.234 6.57106 19.0921 8.00273 19.5695 9.57641C20.0468 11.1501 20.1287 12.8172 19.8078 14.4301C19.487 16.043 18.7733 17.5518 17.7301 18.823C16.6868 20.0942 15.3462 21.0885 13.8269 21.7179C12.3076 22.3472 10.6565 22.5921 9.01996 22.431C7.38339 22.2698 5.81183 21.7075 4.44447 20.7939C3.07711 19.8803 1.95617 18.6436 1.18092 17.1933C0.405677 15.743 5.99229e-05 14.1239 0 12.4795Z" fill="#7B7B7B"/>
</svg>
