<svg width="24" height="24" viewBox="0 0 24 24" fill="none" xmlns="http://www.w3.org/2000/svg">
<path d="M0 19H5V23.707L9.707 19H24V0H0V19ZM1 1H23V18H9.293L6 21.293V18H1V1Z" fill="#7B7B7B"/>
<path d="M8 9.5C8 8.397 7.103 7.5 6 7.5C4.897 7.5 4 8.397 4 9.5C4 10.603 4.897 11.5 6 11.5C7.103 11.5 8 10.603 8 9.5ZM5 9.5C5 8.9485 5.4485 8.5 6 8.5C6.5515 8.5 7 8.9485 7 9.5C7 10.0515 6.5515 10.5 6 10.5C5.4485 10.5 5 10.0515 5 9.5Z" fill="#7B7B7B"/>
<path d="M12 11.5C13.103 11.5 14 10.603 14 9.5C14 8.397 13.103 7.5 12 7.5C10.897 7.5 10 8.397 10 9.5C10 10.603 10.897 11.5 12 11.5ZM12 8.5C12.5515 8.5 13 8.9485 13 9.5C13 10.0515 12.5515 10.5 12 10.5C11.4485 10.5 11 10.0515 11 9.5C11 8.9485 11.4485 8.5 12 8.5Z" fill="#7B7B7B"/>
<path d="M18 11.5C19.103 11.5 20 10.603 20 9.5C20 8.397 19.103 7.5 18 7.5C16.897 7.5 16 8.397 16 9.5C16 10.603 16.897 11.5 18 11.5ZM18 8.5C18.5515 8.5 19 8.9485 19 9.5C19 10.0515 18.5515 10.5 18 10.5C17.4485 10.5 17 10.0515 17 9.5C17 8.9485 17.4485 8.5 18 8.5Z" fill="#7B7B7B"/>
</svg>
