<svg width="23" height="21" viewBox="0 0 23 21" fill="none" xmlns="http://www.w3.org/2000/svg">
<path d="M18.75 9H18C17.5858 9 17.25 9.33579 17.25 9.75C17.25 10.1642 17.5858 10.5 18 10.5H18.75C19.3465 10.5007 19.9185 10.7379 20.3403 11.1597C20.7621 11.5815 20.9993 12.1535 21 12.75V15C21 15.4142 21.3358 15.75 21.75 15.75C22.1642 15.75 22.5 15.4142 22.5 15V12.75C22.4988 11.7558 22.1034 10.8026 21.4004 10.0996C20.6974 9.39661 19.7442 9.00115 18.75 9Z" fill="#7B7B7B"/>
<path d="M17.25 1.5C17.695 1.5 18.13 1.63196 18.5 1.87919C18.87 2.12643 19.1584 2.47783 19.3287 2.88896C19.499 3.3001 19.5436 3.7525 19.4568 4.18895C19.37 4.62541 19.1557 5.02632 18.841 5.34099C18.5263 5.65566 18.1254 5.86995 17.689 5.95677C17.2525 6.04358 16.8001 5.99903 16.389 5.82873C15.9778 5.65843 15.6264 5.37004 15.3792 5.00003C15.132 4.63002 15 4.19501 15 3.75C15 3.15326 15.2371 2.58097 15.659 2.15901C16.081 1.73705 16.6533 1.5 17.25 1.5ZM17.25 0C16.5083 0 15.7833 0.219934 15.1666 0.631989C14.5499 1.04404 14.0693 1.62971 13.7855 2.31494C13.5016 3.00016 13.4274 3.75416 13.5721 4.48159C13.7167 5.20902 14.0739 5.8772 14.5983 6.40165C15.1228 6.9261 15.791 7.28325 16.5184 7.42795C17.2458 7.57264 17.9998 7.49838 18.6851 7.21455C19.3703 6.93072 19.956 6.45007 20.368 5.83339C20.7801 5.2167 21 4.49168 21 3.75C21 2.75544 20.6049 1.80161 19.9016 1.09835C19.1984 0.395088 18.2446 0 17.25 0Z" fill="#7B7B7B"/>
<path d="M16.5 20.25C16.5 20.6642 16.1642 21 15.75 21C15.3358 21 15 20.6642 15 20.25V19.5C14.9993 18.9035 14.7621 18.3315 14.3403 17.9097C13.9185 17.4879 13.3465 17.2507 12.75 17.25H9.75C9.15346 17.2507 8.58155 17.4879 8.15973 17.9097C7.73792 18.3315 7.50066 18.9035 7.5 19.5V20.25C7.5 20.6642 7.16421 21 6.75 21C6.33579 21 6 20.6642 6 20.25V19.5C6.00117 18.5058 6.39664 17.5527 7.09964 16.8496C7.80265 16.1466 8.7558 15.7512 9.75 15.75H12.75C13.7442 15.7512 14.6973 16.1466 15.4004 16.8496C16.1034 17.5527 16.4988 18.5058 16.5 19.5V20.25Z" fill="#7B7B7B"/>
<path d="M11.25 8.25C11.695 8.25 12.13 8.38196 12.5 8.62919C12.87 8.87643 13.1584 9.22783 13.3287 9.63896C13.499 10.0501 13.5436 10.5025 13.4568 10.939C13.37 11.3754 13.1557 11.7763 12.841 12.091C12.5263 12.4057 12.1254 12.62 11.689 12.7068C11.2525 12.7936 10.8001 12.749 10.389 12.5787C9.97783 12.4084 9.62643 12.12 9.37919 11.75C9.13196 11.38 9 10.945 9 10.5C9 9.90326 9.23705 9.33097 9.65901 8.90901C10.081 8.48705 10.6533 8.25 11.25 8.25ZM11.25 6.75C10.5083 6.75 9.7833 6.96993 9.16661 7.38199C8.54993 7.79404 8.06928 8.37971 7.78545 9.06494C7.50162 9.75016 7.42736 10.5042 7.57205 11.2316C7.71675 11.959 8.0739 12.6272 8.59835 13.1517C9.1228 13.6761 9.79098 14.0333 10.5184 14.1779C11.2458 14.3226 11.9998 14.2484 12.6851 13.9645C13.3703 13.6807 13.956 13.2001 14.368 12.5834C14.7801 11.9667 15 11.2417 15 10.5C15 9.50544 14.6049 8.55161 13.9017 7.84835C13.1984 7.14509 12.2446 6.75 11.25 6.75Z" fill="#7B7B7B"/>
<path d="M5.25 9.75C5.25 9.33579 4.91421 9 4.5 9H3.75C2.7558 9.00117 1.80265 9.39664 1.09964 10.0996C0.396635 10.8027 0.00117109 11.7558 0 12.75V15C0 15.4142 0.335786 15.75 0.75 15.75C1.16421 15.75 1.5 15.4142 1.5 15V12.75C1.50066 12.1535 1.73792 11.5815 2.15973 11.1597C2.58155 10.7379 3.15346 10.5007 3.75 10.5H4.5C4.91421 10.5 5.25 10.1642 5.25 9.75Z" fill="#7B7B7B"/>
<path d="M5.25 1.5C5.69501 1.5 6.13002 1.63196 6.50003 1.87919C6.87004 2.12643 7.15843 2.47783 7.32873 2.88896C7.49903 3.3001 7.54358 3.7525 7.45677 4.18895C7.36995 4.62541 7.15566 5.02632 6.84099 5.34099C6.52632 5.65566 6.12541 5.86995 5.68895 5.95677C5.2525 6.04358 4.8001 5.99903 4.38896 5.82873C3.97783 5.65843 3.62643 5.37004 3.37919 5.00003C3.13196 4.63002 3 4.19501 3 3.75C3 3.15326 3.23705 2.58097 3.65901 2.15901C4.08097 1.73705 4.65326 1.5 5.25 1.5ZM5.25 0C4.50832 0 3.7833 0.219934 3.16661 0.631989C2.54993 1.04404 2.06928 1.62971 1.78545 2.31494C1.50162 3.00016 1.42736 3.75416 1.57206 4.48159C1.71675 5.20902 2.0739 5.8772 2.59835 6.40165C3.1228 6.9261 3.79098 7.28325 4.51841 7.42795C5.24584 7.57264 5.99984 7.49838 6.68506 7.21455C7.37029 6.93072 7.95596 6.45007 8.36801 5.83339C8.78007 5.2167 9 4.49168 9 3.75C9 2.75544 8.60491 1.80161 7.90165 1.09835C7.19839 0.395088 6.24456 0 5.25 0Z" fill="#7B7B7B"/>
</svg>
