<?xml version="1.0" encoding="UTF-8"?><svg id="katman_1" xmlns="http://www.w3.org/2000/svg" viewBox="0 0 555.24 201.32"><defs><style>.cls-1{fill:#e9a540;}.cls-2{fill:#767576;}</style></defs><path class="cls-1" d="m179.47,81.72c-20.81,0-37.68,16.87-37.68,37.68s16.87,37.68,37.68,37.68,37.68-16.87,37.68-37.68-16.87-37.68-37.68-37.68Zm0,60.86c-12.8,0-23.18-10.38-23.18-23.18s10.38-23.18,23.18-23.18,23.18,10.38,23.18,23.18-10.38,23.18-23.18,23.18Z"/><path class="cls-1" d="m461.62,81.72c-20.81,0-37.68,16.87-37.68,37.68s16.87,37.68,37.68,37.68,37.68-16.87,37.68-37.68-16.87-37.68-37.68-37.68Zm0,60.86c-12.8,0-23.18-10.38-23.18-23.18s10.38-23.18,23.18-23.18,23.18,10.38,23.18,23.18-10.38,23.18-23.18,23.18Z"/><path class="cls-2" d="m327.77,118.74c-.35-20.5-17.06-37.02-37.65-37.02s-37.29,16.52-37.65,37.02h-.03v38.34h14.5v-37.68c0-12.8,10.38-23.18,23.18-23.18s23.18,10.38,23.18,23.18v37.68h14.5v-38.34h-.03Z"/><rect class="cls-2" x="227.44" y="81.72" width="14.5" height="75.36"/><path class="cls-1" d="m93.62,81.72c-8.75,0-16.78,3.01-23.18,8.01v-45.49h-14.5v75.29h0c.07,20.75,16.91,37.55,37.67,37.55s37.68-16.87,37.68-37.68-16.87-37.68-37.68-37.68Zm0,60.86c-12.8,0-23.18-10.38-23.18-23.18s10.38-23.18,23.18-23.18,23.18,10.38,23.18,23.18-10.38,23.18-23.18,23.18Z"/><path class="cls-1" d="m338.09,119.4c0,20.81,16.87,37.68,37.68,37.68,20.77,0,37.6-16.8,37.67-37.55h0V44.24s-14.5,0-14.5,0v45.49c-6.4-5-14.43-8.01-23.18-8.01-20.81,0-37.68,16.87-37.68,37.68Zm14.5,0c0-12.8,10.38-23.18,23.18-23.18s23.18,10.38,23.18,23.18c0,12.8-10.38,23.18-23.18,23.18-12.8,0-23.18-10.38-23.18-23.18Z"/><circle class="cls-2" cx="234.7" cy="68.37" r="7.25"/></svg>